<svg width="26" height="26" viewBox="0 0 26 26" fill="none" xmlns="http://www.w3.org/2000/svg">
<g opacity="0.5">
<path d="M22.1997 4.34615C21.6464 3.79257 20.9894 3.35343 20.2663 3.05382C19.5432 2.75422 18.7682 2.60001 17.9855 2.60001C17.2028 2.60001 16.4278 2.75422 15.7047 3.05382C14.9816 3.35343 14.3247 3.79257 13.7713 4.34615L12.623 5.49448L11.4747 4.34615C10.357 3.22848 8.84113 2.60059 7.26051 2.60059C5.67989 2.60059 4.16401 3.22848 3.04635 4.34615C1.92868 5.46382 1.30078 6.9797 1.30078 8.56032C1.30078 10.1409 1.92868 11.6568 3.04635 12.7745L4.19468 13.9228L12.623 22.3512L21.0513 13.9228L22.1997 12.7745C22.7533 12.2212 23.1924 11.5642 23.492 10.8411C23.7916 10.118 23.9458 9.34301 23.9458 8.56032C23.9458 7.77762 23.7916 7.0026 23.492 6.27952C23.1924 5.55644 22.7533 4.89947 22.1997 4.34615Z" stroke="white" stroke-width="1.5" stroke-linecap="round" stroke-linejoin="round"/>
</g>
</svg>
